<?xml version="1.0" standalone="no"?>
<!DOCTYPE svg PUBLIC "-//W3C//DTD SVG 20010904//EN"
 "http://www.w3.org/TR/2001/REC-SVG-20010904/DTD/svg10.dtd">
<svg version="1.0" xmlns="http://www.w3.org/2000/svg"
 width="1280.000000pt" height="284.000000pt" viewBox="0 0 1280.000000 284.000000"
 preserveAspectRatio="xMidYMid meet">
<metadata>
Created by potrace 1.16, written by Peter Selinger 2001-2019
</metadata>
<g transform="translate(0.000000,284.000000) scale(0.100000,-0.100000)"
fill="#000000" stroke="none">
<path d="M12525 1589 c-899 -401 -1360 -574 -1890 -709 -961 -245 -1640 -223
-3040 99 -348 80 -712 162 -825 186 -69 14 -154 32 -190 40 -354 76 -985 151
-1479 176 -266 13 -1155 7 -1396 -10 -1036 -73 -1747 -167 -3225 -427 -234
-41 -437 -77 -452 -80 l-28 -6 0 -429 0 -429 6400 0 6400 0 0 855 c0 470 -1
855 -2 855 -2 0 -124 -55 -273 -121z"/>
</g>
</svg>
